<svg width="155" height="19" viewBox="0 0 155 19" fill="none" xmlns="http://www.w3.org/2000/svg">
<path d="M12.225 0.524998V1.975H7.375V18H5.625V1.975H0.75V0.524998H12.225ZM16.7383 1.95V8.475H23.3633V9.925H16.7383V16.55H24.1133V18H14.9883V0.499999H24.1133V1.95H16.7383ZM37.6865 13.85H29.7365L28.2115 18H26.3615L32.7365 0.749999H34.7115L41.0615 18H39.2115L37.6865 13.85ZM37.1615 12.4L33.7115 2.95L30.2615 12.4H37.1615ZM60.9451 0.749999V18H59.1951V4.225L53.0451 18H51.7701L45.6201 4.275V18H43.8701V0.749999H45.7201L52.3951 15.7L59.0701 0.749999H60.9451ZM77.6754 18.175C76.3921 18.175 75.2421 17.9667 74.2254 17.55C73.2087 17.1333 72.3921 16.5167 71.7754 15.7C71.1754 14.8833 70.8587 13.9 70.8254 12.75H75.3754C75.4421 13.4 75.6671 13.9 76.0504 14.25C76.4337 14.5833 76.9337 14.75 77.5504 14.75C78.1837 14.75 78.6837 14.6083 79.0504 14.325C79.4171 14.025 79.6004 13.6167 79.6004 13.1C79.6004 12.6667 79.4504 12.3083 79.1504 12.025C78.8671 11.7417 78.5087 11.5083 78.0754 11.325C77.6587 11.1417 77.0587 10.9333 76.2754 10.7C75.1421 10.35 74.2171 10 73.5004 9.65C72.7837 9.3 72.1671 8.78333 71.6504 8.1C71.1337 7.41667 70.8754 6.525 70.8754 5.425C70.8754 3.79167 71.4671 2.51667 72.6504 1.6C73.8337 0.666666 75.3754 0.2 77.2754 0.2C79.2087 0.2 80.7671 0.666666 81.9504 1.6C83.1337 2.51667 83.7671 3.8 83.8504 5.45H79.2254C79.1921 4.88333 78.9837 4.44167 78.6004 4.125C78.2171 3.79167 77.7254 3.625 77.1254 3.625C76.6087 3.625 76.1921 3.76667 75.8754 4.05C75.5587 4.31667 75.4004 4.70833 75.4004 5.225C75.4004 5.79167 75.6671 6.23333 76.2004 6.55C76.7337 6.86667 77.5671 7.20833 78.7004 7.575C79.8337 7.95833 80.7504 8.325 81.4504 8.675C82.1671 9.025 82.7837 9.53333 83.3004 10.2C83.8171 10.8667 84.0754 11.725 84.0754 12.775C84.0754 13.775 83.8171 14.6833 83.3004 15.5C82.8004 16.3167 82.0671 16.9667 81.1004 17.45C80.1337 17.9333 78.9921 18.175 77.6754 18.175ZM99.3313 0.449999V3.875H94.6813V18H90.4063V3.875H85.7563V0.449999H99.3313ZM112.402 14.9H105.852L104.802 18H100.327L106.677 0.449999H111.627L117.977 18H113.452L112.402 14.9ZM111.302 11.6L109.127 5.175L106.977 11.6H111.302ZM119.184 9.2C119.184 7.46667 119.559 5.925 120.309 4.575C121.059 3.20833 122.101 2.15 123.434 1.4C124.784 0.633332 126.309 0.249999 128.009 0.249999C130.093 0.249999 131.876 0.799999 133.359 1.9C134.843 3 135.834 4.5 136.334 6.4H131.634C131.284 5.66667 130.784 5.10833 130.134 4.725C129.501 4.34167 128.776 4.15 127.959 4.15C126.643 4.15 125.576 4.60833 124.759 5.525C123.943 6.44167 123.534 7.66667 123.534 9.2C123.534 10.7333 123.943 11.9583 124.759 12.875C125.576 13.7917 126.643 14.25 127.959 14.25C128.776 14.25 129.501 14.0583 130.134 13.675C130.784 13.2917 131.284 12.7333 131.634 12H136.334C135.834 13.9 134.843 15.4 133.359 16.5C131.876 17.5833 130.093 18.125 128.009 18.125C126.309 18.125 124.784 17.75 123.434 17C122.101 16.2333 121.059 15.175 120.309 13.825C119.559 12.475 119.184 10.9333 119.184 9.2ZM149.127 18L143.227 10.25V18H138.952V0.449999H143.227V8.15L149.077 0.449999H154.102L147.302 9.05L154.352 18H149.127Z" fill="url(#paint0_linear)"/>
<defs>
<linearGradient id="paint0_linear" x1="84.5" y1="-10" x2="84.5" y2="31" gradientUnits="userSpaceOnUse">
<stop stop-color="white"/>
<stop offset="1" stop-color="#ECEFED"/>
</linearGradient>
</defs>
</svg>
