<svg width="99" height="13" viewBox="0 0 99 13" fill="none" xmlns="http://www.w3.org/2000/svg">
<path d="M7.824 0.815999V1.744H4.72V12H3.6V1.744H0.48V0.815999H7.824ZM10.7125 1.728V5.904H14.9525V6.832H10.7125V11.072H15.4325V12H9.5925V0.799999H15.4325V1.728H10.7125ZM24.1194 9.344H19.0314L18.0554 12H16.8714L20.9514 0.959999H22.2154L26.2794 12H25.0954L24.1194 9.344ZM23.7834 8.416L21.5754 2.368L19.3674 8.416H23.7834ZM39.0049 0.959999V12H37.8849V3.184L33.9489 12H33.1329L29.1969 3.216V12H28.0769V0.959999H29.2609L33.5329 10.528L37.8049 0.959999H39.0049ZM49.7123 12.112C48.8909 12.112 48.1549 11.9787 47.5043 11.712C46.8536 11.4453 46.3309 11.0507 45.9363 10.528C45.5523 10.0053 45.3496 9.376 45.3283 8.64H48.2403C48.2829 9.056 48.4269 9.376 48.6723 9.6C48.9176 9.81333 49.2376 9.92 49.6323 9.92C50.0376 9.92 50.3576 9.82933 50.5923 9.648C50.8269 9.456 50.9443 9.19467 50.9443 8.864C50.9443 8.58667 50.8483 8.35733 50.6563 8.176C50.4749 7.99467 50.2456 7.84533 49.9683 7.728C49.7016 7.61067 49.3176 7.47733 48.8163 7.328C48.0909 7.104 47.4989 6.88 47.0403 6.656C46.5816 6.432 46.1869 6.10133 45.8563 5.664C45.5256 5.22667 45.3603 4.656 45.3603 3.952C45.3603 2.90667 45.7389 2.09067 46.4963 1.504C47.2536 0.906666 48.2403 0.608 49.4563 0.608C50.6936 0.608 51.6909 0.906666 52.4483 1.504C53.2056 2.09067 53.6109 2.912 53.6643 3.968H50.7043C50.6829 3.60533 50.5496 3.32267 50.3043 3.12C50.0589 2.90667 49.7443 2.8 49.3602 2.8C49.0296 2.8 48.7629 2.89067 48.5603 3.072C48.3576 3.24267 48.2563 3.49333 48.2563 3.824C48.2563 4.18667 48.4269 4.46933 48.7682 4.672C49.1096 4.87467 49.6429 5.09333 50.3683 5.328C51.0936 5.57333 51.6803 5.808 52.1283 6.032C52.5869 6.256 52.9816 6.58133 53.3123 7.008C53.6429 7.43467 53.8083 7.984 53.8083 8.656C53.8083 9.296 53.6429 9.87733 53.3123 10.4C52.9923 10.9227 52.5229 11.3387 51.9043 11.648C51.2856 11.9573 50.5549 12.112 49.7123 12.112ZM63.572 0.768V2.96H60.596V12H57.86V2.96H54.884V0.768H63.572ZM71.9371 10.016H67.7451L67.0731 12H64.2091L68.2731 0.768H71.4411L75.5051 12H72.6091L71.9371 10.016ZM71.2331 7.904L69.8411 3.792L68.4651 7.904H71.2331ZM76.278 6.368C76.278 5.25867 76.518 4.272 76.998 3.408C77.478 2.53333 78.1447 1.856 78.998 1.376C79.862 0.885333 80.838 0.639999 81.926 0.639999C83.2593 0.639999 84.4007 0.991999 85.35 1.696C86.2993 2.4 86.934 3.36 87.254 4.576H84.246C84.022 4.10667 83.702 3.74933 83.286 3.504C82.8807 3.25867 82.4167 3.136 81.894 3.136C81.0513 3.136 80.3687 3.42933 79.846 4.016C79.3233 4.60267 79.062 5.38667 79.062 6.368C79.062 7.34933 79.3233 8.13333 79.846 8.72C80.3687 9.30667 81.0513 9.6 81.894 9.6C82.4167 9.6 82.8807 9.47733 83.286 9.232C83.702 8.98667 84.022 8.62933 84.246 8.16H87.254C86.934 9.376 86.2993 10.336 85.35 11.04C84.4007 11.7333 83.2593 12.08 81.926 12.08C80.838 12.08 79.862 11.84 78.998 11.36C78.1447 10.8693 77.478 10.192 76.998 9.328C76.518 8.464 76.278 7.47733 76.278 6.368ZM95.4415 12L91.6655 7.04V12H88.9295V0.768H91.6655V5.696L95.4095 0.768H98.6255L94.2735 6.272L98.7855 12H95.4415Z" fill="url(#paint0_linear)"/>
<defs>
<linearGradient id="paint0_linear" x1="50" y1="-6" x2="50" y2="18" gradientUnits="userSpaceOnUse">
<stop stop-color="#11998E"/>
<stop offset="1" stop-color="#38EF7D"/>
</linearGradient>
</defs>
</svg>
